<?xml version="1.0" encoding="UTF-8" standalone="no"?>
<!DOCTYPE svg PUBLIC "-//W3C//DTD SVG 1.1//EN"
 "http://www.w3.org/Graphics/SVG/1.1/DTD/svg11.dtd">
<!-- Generated by graphviz version 10.0.1 (20240210.2158)
 -->
<!-- Title: pastafarianism Pages: 1 -->
<svg width="1529pt" height="352pt"
 viewBox="0.00 0.00 1529.41 351.83" xmlns="http://www.w3.org/2000/svg" xmlns:xlink="http://www.w3.org/1999/xlink">
<g id="graph0" class="graph" transform="scale(1 1) rotate(0) translate(4 347.83)">
<title>pastafarianism</title>
<polygon fill="white" stroke="none" points="-4,4 -4,-347.83 1525.41,-347.83 1525.41,4 -4,4"/>
<!-- fd4ff3a6&#45;1073&#45;46b5&#45;b169&#45;af6043eebc04 -->
<g id="node1" class="node">
<title>fd4ff3a6&#45;1073&#45;46b5&#45;b169&#45;af6043eebc04</title>
<polygon fill="#b0ffff" stroke="black" points="705.66,-343.83 670.16,-343.83 670.16,-312.58 705.66,-312.58 705.66,-343.83"/>
<text text-anchor="middle" x="687.91" y="-320.83" font-family="Times New Roman,serif" font-size="20.00"> ? </text>
</g>
<!-- 79c51b65&#45;b01c&#45;456c&#45;9d0e&#45;d93af1629f02 -->
<g id="node2" class="node">
<title>79c51b65&#45;b01c&#45;456c&#45;9d0e&#45;d93af1629f02</title>
<ellipse fill="#ffff80" stroke="black" cx="482.91" cy="-254.49" rx="169.35" ry="22.1"/>
<text text-anchor="middle" x="482.91" y="-247.11" font-family="Times New Roman,serif" font-size="20.00">IsOn(bananas,kitchentable)</text>
</g>
<!-- fd4ff3a6&#45;1073&#45;46b5&#45;b169&#45;af6043eebc04&#45;&gt;79c51b65&#45;b01c&#45;456c&#45;9d0e&#45;d93af1629f02 -->
<g id="edge1" class="edge">
<title>fd4ff3a6&#45;1073&#45;46b5&#45;b169&#45;af6043eebc04&#45;&gt;79c51b65&#45;b01c&#45;456c&#45;9d0e&#45;d93af1629f02</title>
<path fill="none" stroke="black" d="M669.72,-320.84C643.31,-311.6 592.93,-293.98 551.14,-279.36"/>
<polygon fill="black" stroke="black" points="552.47,-276.11 541.88,-276.12 550.16,-282.72 552.47,-276.11"/>
</g>
<!-- b566533f&#45;5ab8&#45;4622&#45;a3ee&#45;ffd7b39d8092 -->
<g id="node3" class="node">
<title>b566533f&#45;5ab8&#45;4622&#45;a3ee&#45;ffd7b39d8092</title>
<polygon fill="#ff8080" stroke="black" points="706.04,-270.11 669.79,-270.11 669.79,-238.86 706.04,-238.86 706.04,-270.11"/>
<text text-anchor="middle" x="687.91" y="-247.11" font-family="Times New Roman,serif" font-size="20.00">→</text>
</g>
<!-- fd4ff3a6&#45;1073&#45;46b5&#45;b169&#45;af6043eebc04&#45;&gt;b566533f&#45;5ab8&#45;4622&#45;a3ee&#45;ffd7b39d8092 -->
<g id="edge2" class="edge">
<title>fd4ff3a6&#45;1073&#45;46b5&#45;b169&#45;af6043eebc04&#45;&gt;b566533f&#45;5ab8&#45;4622&#45;a3ee&#45;ffd7b39d8092</title>
<path fill="none" stroke="black" d="M687.91,-312.35C687.91,-303.5 687.91,-292.02 687.91,-281.69"/>
<polygon fill="black" stroke="black" points="691.41,-281.84 687.91,-271.84 684.41,-281.84 691.41,-281.84"/>
</g>
<!-- b2ca3793&#45;b64d&#45;4eec&#45;8096&#45;d930dae5c41c -->
<g id="node12" class="node">
<title>b2ca3793&#45;b64d&#45;4eec&#45;8096&#45;d930dae5c41c</title>
<polygon fill="#ff8080" stroke="black" points="1016.04,-270.11 979.79,-270.11 979.79,-238.86 1016.04,-238.86 1016.04,-270.11"/>
<text text-anchor="middle" x="997.91" y="-247.11" font-family="Times New Roman,serif" font-size="20.00">→</text>
</g>
<!-- fd4ff3a6&#45;1073&#45;46b5&#45;b169&#45;af6043eebc04&#45;&gt;b2ca3793&#45;b64d&#45;4eec&#45;8096&#45;d930dae5c41c -->
<g id="edge11" class="edge">
<title>fd4ff3a6&#45;1073&#45;46b5&#45;b169&#45;af6043eebc04&#45;&gt;b2ca3793&#45;b64d&#45;4eec&#45;8096&#45;d930dae5c41c</title>
<path fill="none" stroke="black" d="M705.92,-323.04C757.27,-311.16 904.81,-277.03 968.29,-262.34"/>
<polygon fill="black" stroke="black" points="969.04,-265.76 977.99,-260.09 967.46,-258.94 969.04,-265.76"/>
</g>
<!-- 42a4a7f8&#45;6bbd&#45;42d0&#45;8452&#45;c94bf70649cf -->
<g id="node4" class="node">
<title>42a4a7f8&#45;6bbd&#45;42d0&#45;8452&#45;c94bf70649cf</title>
<ellipse fill="#ffff80" stroke="black" cx="480.91" cy="-174.29" rx="170.94" ry="22.1"/>
<text text-anchor="middle" x="480.91" y="-166.92" font-family="Times New Roman,serif" font-size="20.00">IsLeftHolding(self,bananas)</text>
</g>
<!-- b566533f&#45;5ab8&#45;4622&#45;a3ee&#45;ffd7b39d8092&#45;&gt;42a4a7f8&#45;6bbd&#45;42d0&#45;8452&#45;c94bf70649cf -->
<g id="edge3" class="edge">
<title>b566533f&#45;5ab8&#45;4622&#45;a3ee&#45;ffd7b39d8092&#45;&gt;42a4a7f8&#45;6bbd&#45;42d0&#45;8452&#45;c94bf70649cf</title>
<path fill="none" stroke="black" d="M670.52,-238.46C667.44,-236.23 664.17,-234.11 660.91,-232.39 633.4,-217.88 601.55,-206.28 572.37,-197.43"/>
<polygon fill="black" stroke="black" points="573.36,-194.08 562.78,-194.6 571.38,-200.79 573.36,-194.08"/>
</g>
<!-- aa1d4674&#45;460d&#45;4023&#45;9707&#45;108ea10c0b0d -->
<g id="node5" class="node">
<title>aa1d4674&#45;460d&#45;4023&#45;9707&#45;108ea10c0b0d</title>
<polygon fill="#b0ffff" stroke="black" points="705.66,-189.92 670.16,-189.92 670.16,-158.67 705.66,-158.67 705.66,-189.92"/>
<text text-anchor="middle" x="687.91" y="-166.92" font-family="Times New Roman,serif" font-size="20.00"> ? </text>
</g>
<!-- b566533f&#45;5ab8&#45;4622&#45;a3ee&#45;ffd7b39d8092&#45;&gt;aa1d4674&#45;460d&#45;4023&#45;9707&#45;108ea10c0b0d -->
<g id="edge4" class="edge">
<title>b566533f&#45;5ab8&#45;4622&#45;a3ee&#45;ffd7b39d8092&#45;&gt;aa1d4674&#45;460d&#45;4023&#45;9707&#45;108ea10c0b0d</title>
<path fill="none" stroke="black" d="M687.91,-238.41C687.91,-228.02 687.91,-213.95 687.91,-201.72"/>
<polygon fill="black" stroke="black" points="691.41,-201.84 687.91,-191.84 684.41,-201.84 691.41,-201.84"/>
</g>
<!-- cc234521&#45;c056&#45;4050&#45;be91&#45;c0a6d6db7db3 -->
<g id="node6" class="node">
<title>cc234521&#45;c056&#45;4050&#45;be91&#45;c0a6d6db7db3</title>
<polygon fill="#ff8080" stroke="black" points="473.04,-113.82 436.79,-113.82 436.79,-82.57 473.04,-82.57 473.04,-113.82"/>
<text text-anchor="middle" x="454.91" y="-90.82" font-family="Times New Roman,serif" font-size="20.00">→</text>
</g>
<!-- aa1d4674&#45;460d&#45;4023&#45;9707&#45;108ea10c0b0d&#45;&gt;cc234521&#45;c056&#45;4050&#45;be91&#45;c0a6d6db7db3 -->
<g id="edge5" class="edge">
<title>aa1d4674&#45;460d&#45;4023&#45;9707&#45;108ea10c0b0d&#45;&gt;cc234521&#45;c056&#45;4050&#45;be91&#45;c0a6d6db7db3</title>
<path fill="none" stroke="black" d="M670.89,-158.33C667.72,-156.04 664.33,-153.88 660.91,-152.19 602.11,-123.24 525.83,-108.96 484.57,-102.92"/>
<polygon fill="black" stroke="black" points="485.31,-99.49 474.92,-101.58 484.34,-106.42 485.31,-99.49"/>
</g>
<!-- fd871a93&#45;1a55&#45;49c4&#45;aea9&#45;d08947d7c4c1 -->
<g id="node9" class="node">
<title>fd871a93&#45;1a55&#45;49c4&#45;aea9&#45;d08947d7c4c1</title>
<polygon fill="#ff8080" stroke="black" points="723.04,-113.82 686.79,-113.82 686.79,-82.57 723.04,-82.57 723.04,-113.82"/>
<text text-anchor="middle" x="704.91" y="-90.82" font-family="Times New Roman,serif" font-size="20.00">→</text>
</g>
<!-- aa1d4674&#45;460d&#45;4023&#45;9707&#45;108ea10c0b0d&#45;&gt;fd871a93&#45;1a55&#45;49c4&#45;aea9&#45;d08947d7c4c1 -->
<g id="edge8" class="edge">
<title>aa1d4674&#45;460d&#45;4023&#45;9707&#45;108ea10c0b0d&#45;&gt;fd871a93&#45;1a55&#45;49c4&#45;aea9&#45;d08947d7c4c1</title>
<path fill="none" stroke="black" d="M691.35,-158.3C693.52,-148.86 696.37,-136.41 698.9,-125.38"/>
<polygon fill="black" stroke="black" points="702.31,-126.17 701.14,-115.64 695.49,-124.61 702.31,-126.17"/>
</g>
<!-- 23a1f7af&#45;285a&#45;4ad0&#45;b387&#45;d83906954f61 -->
<g id="node7" class="node">
<title>23a1f7af&#45;285a&#45;4ad0&#45;b387&#45;d83906954f61</title>
<ellipse fill="#ffff80" stroke="black" cx="152.91" cy="-22.1" rx="152.91" ry="22.1"/>
<text text-anchor="middle" x="152.91" y="-14.72" font-family="Times New Roman,serif" font-size="20.00">IsNear(self,kitchentable)</text>
</g>
<!-- cc234521&#45;c056&#45;4050&#45;be91&#45;c0a6d6db7db3&#45;&gt;23a1f7af&#45;285a&#45;4ad0&#45;b387&#45;d83906954f61 -->
<g id="edge6" class="edge">
<title>cc234521&#45;c056&#45;4050&#45;be91&#45;c0a6d6db7db3&#45;&gt;23a1f7af&#45;285a&#45;4ad0&#45;b387&#45;d83906954f61</title>
<path fill="none" stroke="black" d="M436.47,-92.67C398.18,-83.28 307.91,-61.13 239.42,-44.32"/>
<polygon fill="black" stroke="black" points="240.65,-41.02 230.1,-42.04 238.98,-47.82 240.65,-41.02"/>
</g>
<!-- 0ad154d3&#45;487c&#45;4326&#45;9da0&#45;f8b0d4bffb15 -->
<g id="node8" class="node">
<title>0ad154d3&#45;487c&#45;4326&#45;9da0&#45;f8b0d4bffb15</title>
<polygon fill="lightgreen" stroke="black" points="585.91,-40.1 323.91,-40.1 323.91,-4.1 585.91,-4.1 585.91,-40.1"/>
<text text-anchor="middle" x="454.91" y="-14.72" font-family="Times New Roman,serif" font-size="20.00">LeftPut(bananas,kitchentable)</text>
</g>
<!-- cc234521&#45;c056&#45;4050&#45;be91&#45;c0a6d6db7db3&#45;&gt;0ad154d3&#45;487c&#45;4326&#45;9da0&#45;f8b0d4bffb15 -->
<g id="edge7" class="edge">
<title>cc234521&#45;c056&#45;4050&#45;be91&#45;c0a6d6db7db3&#45;&gt;0ad154d3&#45;487c&#45;4326&#45;9da0&#45;f8b0d4bffb15</title>
<path fill="none" stroke="black" d="M454.91,-82.2C454.91,-73.41 454.91,-62.02 454.91,-51.59"/>
<polygon fill="black" stroke="black" points="458.41,-51.92 454.91,-41.92 451.41,-51.92 458.41,-51.92"/>
</g>
<!-- 68bb49de&#45;9556&#45;4a26&#45;9730&#45;4f34faa9746d -->
<g id="node10" class="node">
<title>68bb49de&#45;9556&#45;4a26&#45;9730&#45;4f34faa9746d</title>
<ellipse fill="#ffff80" stroke="black" cx="704.91" cy="-22.1" rx="101.47" ry="22.1"/>
<text text-anchor="middle" x="704.91" y="-14.72" font-family="Times New Roman,serif" font-size="20.00">IsStanding(self)</text>
</g>
<!-- fd871a93&#45;1a55&#45;49c4&#45;aea9&#45;d08947d7c4c1&#45;&gt;68bb49de&#45;9556&#45;4a26&#45;9730&#45;4f34faa9746d -->
<g id="edge9" class="edge">
<title>fd871a93&#45;1a55&#45;49c4&#45;aea9&#45;d08947d7c4c1&#45;&gt;68bb49de&#45;9556&#45;4a26&#45;9730&#45;4f34faa9746d</title>
<path fill="none" stroke="black" d="M704.91,-82.2C704.91,-74.59 704.91,-65.02 704.91,-55.82"/>
<polygon fill="black" stroke="black" points="708.41,-56.04 704.91,-46.04 701.41,-56.04 708.41,-56.04"/>
</g>
<!-- 31894dcb&#45;8002&#45;4834&#45;828d&#45;badf4538432e -->
<g id="node11" class="node">
<title>31894dcb&#45;8002&#45;4834&#45;828d&#45;badf4538432e</title>
<polygon fill="lightgreen" stroke="black" points="997.66,-40.1 824.16,-40.1 824.16,-4.1 997.66,-4.1 997.66,-40.1"/>
<text text-anchor="middle" x="910.91" y="-14.72" font-family="Times New Roman,serif" font-size="20.00">Walk(kitchentable)</text>
</g>
<!-- fd871a93&#45;1a55&#45;49c4&#45;aea9&#45;d08947d7c4c1&#45;&gt;31894dcb&#45;8002&#45;4834&#45;828d&#45;badf4538432e -->
<g id="edge10" class="edge">
<title>fd871a93&#45;1a55&#45;49c4&#45;aea9&#45;d08947d7c4c1&#45;&gt;31894dcb&#45;8002&#45;4834&#45;828d&#45;badf4538432e</title>
<path fill="none" stroke="black" d="M723.19,-90.62C751.7,-80.37 807.97,-60.12 851.51,-44.46"/>
<polygon fill="black" stroke="black" points="852.63,-47.78 860.85,-41.1 850.26,-41.19 852.63,-47.78"/>
</g>
<!-- 23aa652d&#45;a416&#45;42f3&#45;b3ff&#45;058a716a7036 -->
<g id="node13" class="node">
<title>23aa652d&#45;a416&#45;42f3&#45;b3ff&#45;058a716a7036</title>
<ellipse fill="#ffff80" stroke="black" cx="866.91" cy="-174.29" rx="143.37" ry="22.1"/>
<text text-anchor="middle" x="866.91" y="-166.92" font-family="Times New Roman,serif" font-size="20.00">IsLeftHandEmpty(self)</text>
</g>
<!-- b2ca3793&#45;b64d&#45;4eec&#45;8096&#45;d930dae5c41c&#45;&gt;23aa652d&#45;a416&#45;42f3&#45;b3ff&#45;058a716a7036 -->
<g id="edge12" class="edge">
<title>b2ca3793&#45;b64d&#45;4eec&#45;8096&#45;d930dae5c41c&#45;&gt;23aa652d&#45;a416&#45;42f3&#45;b3ff&#45;058a716a7036</title>
<path fill="none" stroke="black" d="M979.42,-242.45C961.83,-231.95 934.69,-215.75 911.47,-201.89"/>
<polygon fill="black" stroke="black" points="913.48,-199.01 903.09,-196.89 909.89,-205.02 913.48,-199.01"/>
</g>
<!-- 55ccfc99&#45;458d&#45;4c63&#45;99e4&#45;5b5310b835b6 -->
<g id="node14" class="node">
<title>55ccfc99&#45;458d&#45;4c63&#45;99e4&#45;5b5310b835b6</title>
<ellipse fill="#ffff80" stroke="black" cx="1129.91" cy="-174.29" rx="101.47" ry="22.1"/>
<text text-anchor="middle" x="1129.91" y="-166.92" font-family="Times New Roman,serif" font-size="20.00">IsStanding(self)</text>
</g>
<!-- b2ca3793&#45;b64d&#45;4eec&#45;8096&#45;d930dae5c41c&#45;&gt;55ccfc99&#45;458d&#45;4c63&#45;99e4&#45;5b5310b835b6 -->
<g id="edge13" class="edge">
<title>b2ca3793&#45;b64d&#45;4eec&#45;8096&#45;d930dae5c41c&#45;&gt;55ccfc99&#45;458d&#45;4c63&#45;99e4&#45;5b5310b835b6</title>
<path fill="none" stroke="black" d="M1016.27,-242.61C1034.24,-231.96 1062.31,-215.34 1086.06,-201.27"/>
<polygon fill="black" stroke="black" points="1087.81,-204.3 1094.63,-196.19 1084.24,-198.28 1087.81,-204.3"/>
</g>
<!-- b4b7cb52&#45;c39b&#45;4ea3&#45;af33&#45;13361a2792a9 -->
<g id="node15" class="node">
<title>b4b7cb52&#45;c39b&#45;4ea3&#45;af33&#45;13361a2792a9</title>
<polygon fill="#b0ffff" stroke="black" points="1284.66,-189.92 1249.16,-189.92 1249.16,-158.67 1284.66,-158.67 1284.66,-189.92"/>
<text text-anchor="middle" x="1266.91" y="-166.92" font-family="Times New Roman,serif" font-size="20.00"> ? </text>
</g>
<!-- b2ca3793&#45;b64d&#45;4eec&#45;8096&#45;d930dae5c41c&#45;&gt;b4b7cb52&#45;c39b&#45;4ea3&#45;af33&#45;13361a2792a9 -->
<g id="edge14" class="edge">
<title>b2ca3793&#45;b64d&#45;4eec&#45;8096&#45;d930dae5c41c&#45;&gt;b4b7cb52&#45;c39b&#45;4ea3&#45;af33&#45;13361a2792a9</title>
<path fill="none" stroke="black" d="M1016.41,-251.85C1058.15,-247.58 1162.08,-233.75 1239.91,-196.39 1240.02,-196.34 1240.13,-196.28 1240.23,-196.23"/>
<polygon fill="black" stroke="black" points="1241.92,-199.3 1248.63,-191.1 1238.27,-193.33 1241.92,-199.3"/>
</g>
<!-- e608bb6a&#45;ab4b&#45;486d&#45;aaae&#45;d789610fefb5 -->
<g id="node16" class="node">
<title>e608bb6a&#45;ab4b&#45;486d&#45;aaae&#45;d789610fefb5</title>
<polygon fill="#ff8080" stroke="black" points="1232.04,-113.82 1195.79,-113.82 1195.79,-82.57 1232.04,-82.57 1232.04,-113.82"/>
<text text-anchor="middle" x="1213.91" y="-90.82" font-family="Times New Roman,serif" font-size="20.00">→</text>
</g>
<!-- b4b7cb52&#45;c39b&#45;4ea3&#45;af33&#45;13361a2792a9&#45;&gt;e608bb6a&#45;ab4b&#45;486d&#45;aaae&#45;d789610fefb5 -->
<g id="edge15" class="edge">
<title>b4b7cb52&#45;c39b&#45;4ea3&#45;af33&#45;13361a2792a9&#45;&gt;e608bb6a&#45;ab4b&#45;486d&#45;aaae&#45;d789610fefb5</title>
<path fill="none" stroke="black" d="M1256.19,-158.3C1249,-148.25 1239.39,-134.81 1231.14,-123.28"/>
<polygon fill="black" stroke="black" points="1234.17,-121.49 1225.5,-115.4 1228.47,-125.57 1234.17,-121.49"/>
</g>
<!-- c8e05513&#45;8d41&#45;4f8a&#45;b317&#45;45c6c9a3ebf2 -->
<g id="node19" class="node">
<title>c8e05513&#45;8d41&#45;4f8a&#45;b317&#45;45c6c9a3ebf2</title>
<polygon fill="lightgreen" stroke="black" points="1389.41,-116.19 1250.41,-116.19 1250.41,-80.19 1389.41,-80.19 1389.41,-116.19"/>
<text text-anchor="middle" x="1319.91" y="-90.82" font-family="Times New Roman,serif" font-size="20.00">Walk(bananas)</text>
</g>
<!-- b4b7cb52&#45;c39b&#45;4ea3&#45;af33&#45;13361a2792a9&#45;&gt;c8e05513&#45;8d41&#45;4f8a&#45;b317&#45;45c6c9a3ebf2 -->
<g id="edge18" class="edge">
<title>b4b7cb52&#45;c39b&#45;4ea3&#45;af33&#45;13361a2792a9&#45;&gt;c8e05513&#45;8d41&#45;4f8a&#45;b317&#45;45c6c9a3ebf2</title>
<path fill="none" stroke="black" d="M1277.64,-158.3C1284.33,-148.94 1293.13,-136.64 1300.97,-125.68"/>
<polygon fill="black" stroke="black" points="1303.68,-127.91 1306.65,-117.74 1297.98,-123.83 1303.68,-127.91"/>
</g>
<!-- 72eabb16&#45;8fca&#45;4362&#45;a2bd&#45;cab9f6bb2560 -->
<g id="node17" class="node">
<title>72eabb16&#45;8fca&#45;4362&#45;a2bd&#45;cab9f6bb2560</title>
<ellipse fill="#ffff80" stroke="black" cx="1205.91" cy="-22.1" rx="128.52" ry="22.1"/>
<text text-anchor="middle" x="1205.91" y="-14.72" font-family="Times New Roman,serif" font-size="20.00">IsNear(self,bananas)</text>
</g>
<!-- e608bb6a&#45;ab4b&#45;486d&#45;aaae&#45;d789610fefb5&#45;&gt;72eabb16&#45;8fca&#45;4362&#45;a2bd&#45;cab9f6bb2560 -->
<g id="edge16" class="edge">
<title>e608bb6a&#45;ab4b&#45;486d&#45;aaae&#45;d789610fefb5&#45;&gt;72eabb16&#45;8fca&#45;4362&#45;a2bd&#45;cab9f6bb2560</title>
<path fill="none" stroke="black" d="M1212.29,-82.2C1211.47,-74.59 1210.44,-65.02 1209.44,-55.82"/>
<polygon fill="black" stroke="black" points="1212.94,-55.6 1208.39,-46.03 1205.98,-56.35 1212.94,-55.6"/>
</g>
<!-- 9596dec8&#45;ecb9&#45;4360&#45;aeae&#45;6f4ea19b04e2 -->
<g id="node18" class="node">
<title>9596dec8&#45;ecb9&#45;4360&#45;aeae&#45;6f4ea19b04e2</title>
<polygon fill="lightgreen" stroke="black" points="1521.41,-40.1 1352.41,-40.1 1352.41,-4.1 1521.41,-4.1 1521.41,-40.1"/>
<text text-anchor="middle" x="1436.91" y="-14.72" font-family="Times New Roman,serif" font-size="20.00">LeftGrab(bananas)</text>
</g>
<!-- e608bb6a&#45;ab4b&#45;486d&#45;aaae&#45;d789610fefb5&#45;&gt;9596dec8&#45;ecb9&#45;4360&#45;aeae&#45;6f4ea19b04e2 -->
<g id="edge17" class="edge">
<title>e608bb6a&#45;ab4b&#45;486d&#45;aaae&#45;d789610fefb5&#45;&gt;9596dec8&#45;ecb9&#45;4360&#45;aeae&#45;6f4ea19b04e2</title>
<path fill="none" stroke="black" d="M1232.53,-84.98C1235.59,-83.24 1238.79,-81.57 1241.91,-80.19 1275.99,-65.17 1315.12,-52.83 1349.35,-43.51"/>
<polygon fill="black" stroke="black" points="1350.06,-46.94 1358.81,-40.98 1348.25,-40.18 1350.06,-46.94"/>
</g>
</g>
</svg>
