<?xml version="1.0" encoding="UTF-8" standalone="no"?>
<!DOCTYPE svg PUBLIC "-//W3C//DTD SVG 1.1//EN"
 "http://www.w3.org/Graphics/SVG/1.1/DTD/svg11.dtd">
<!-- Generated by graphviz version 12.1.0 (20240811.2233)
 -->
<!-- Title: pastafarianism Pages: 1 -->
<svg width="786pt" height="335pt"
 viewBox="0.00 0.00 786.02 335.27" xmlns="http://www.w3.org/2000/svg" xmlns:xlink="http://www.w3.org/1999/xlink">
<g id="graph0" class="graph" transform="scale(1 1) rotate(0) translate(4 331.27)">
<title>pastafarianism</title>
<polygon fill="white" stroke="none" points="-4,4 -4,-331.27 782.02,-331.27 782.02,4 -4,4"/>
<!-- 6cab502e&#45;f6d9&#45;46cc&#45;bb94&#45;706e7c14ad1f -->
<g id="node1" class="node">
<title>6cab502e&#45;f6d9&#45;46cc&#45;bb94&#45;706e7c14ad1f</title>
<polygon fill="#b0ffff" stroke="black" points="431.77,-327.27 396.27,-327.27 396.27,-296.77 431.77,-296.77 431.77,-327.27"/>
<text text-anchor="middle" x="414.02" y="-304.27" font-family="Times New Roman,serif" font-size="20.00"> ? </text>
</g>
<!-- 90246cb8&#45;cae8&#45;40f7&#45;88ac&#45;4314ea7dc80d -->
<g id="node2" class="node">
<title>90246cb8&#45;cae8&#45;40f7&#45;88ac&#45;4314ea7dc80d</title>
<ellipse fill="#ffff80" stroke="black" cx="328.02" cy="-239.2" rx="137" ry="21.57"/>
<text text-anchor="middle" x="328.02" y="-231.45" font-family="Times New Roman,serif" font-size="20.00">Low(ACTemperature)</text>
</g>
<!-- 6cab502e&#45;f6d9&#45;46cc&#45;bb94&#45;706e7c14ad1f&#45;&gt;90246cb8&#45;cae8&#45;40f7&#45;88ac&#45;4314ea7dc80d -->
<g id="edge1" class="edge">
<title>6cab502e&#45;f6d9&#45;46cc&#45;bb94&#45;706e7c14ad1f&#45;&gt;90246cb8&#45;cae8&#45;40f7&#45;88ac&#45;4314ea7dc80d</title>
<path fill="none" stroke="black" d="M396.2,-296.34C386.24,-288.14 373.5,-277.65 361.73,-267.96"/>
<polygon fill="black" stroke="black" points="364.1,-265.38 354.15,-261.72 359.65,-270.78 364.1,-265.38"/>
</g>
<!-- e3427bab&#45;f98b&#45;44f3&#45;87f6&#45;b53034e41529 -->
<g id="node3" class="node">
<title>e3427bab&#45;f98b&#45;44f3&#45;87f6&#45;b53034e41529</title>
<polygon fill="#ff8080" stroke="black" points="519.14,-254.45 482.89,-254.45 482.89,-223.95 519.14,-223.95 519.14,-254.45"/>
<text text-anchor="middle" x="501.02" y="-231.45" font-family="Times New Roman,serif" font-size="20.00">→</text>
</g>
<!-- 6cab502e&#45;f6d9&#45;46cc&#45;bb94&#45;706e7c14ad1f&#45;&gt;e3427bab&#45;f98b&#45;44f3&#45;87f6&#45;b53034e41529 -->
<g id="edge2" class="edge">
<title>6cab502e&#45;f6d9&#45;46cc&#45;bb94&#45;706e7c14ad1f&#45;&gt;e3427bab&#45;f98b&#45;44f3&#45;87f6&#45;b53034e41529</title>
<path fill="none" stroke="black" d="M432.04,-296.34C444.29,-286.37 460.7,-273.02 474.44,-261.83"/>
<polygon fill="black" stroke="black" points="476.29,-264.84 481.84,-255.81 471.87,-259.41 476.29,-264.84"/>
</g>
<!-- 04d8ae05&#45;9949&#45;4928&#45;86a8&#45;d2d1fb1d54ea -->
<g id="node4" class="node">
<title>04d8ae05&#45;9949&#45;4928&#45;86a8&#45;d2d1fb1d54ea</title>
<polygon fill="#b0ffff" stroke="black" points="438.77,-178.88 403.27,-178.88 403.27,-148.38 438.77,-148.38 438.77,-178.88"/>
<text text-anchor="middle" x="421.02" y="-155.88" font-family="Times New Roman,serif" font-size="20.00"> ? </text>
</g>
<!-- e3427bab&#45;f98b&#45;44f3&#45;87f6&#45;b53034e41529&#45;&gt;04d8ae05&#45;9949&#45;4928&#45;86a8&#45;d2d1fb1d54ea -->
<g id="edge3" class="edge">
<title>e3427bab&#45;f98b&#45;44f3&#45;87f6&#45;b53034e41529&#45;&gt;04d8ae05&#45;9949&#45;4928&#45;86a8&#45;d2d1fb1d54ea</title>
<path fill="none" stroke="black" d="M485.21,-223.67C473.81,-213.19 458.22,-198.85 445.26,-186.93"/>
<polygon fill="black" stroke="black" points="447.63,-184.35 437.9,-180.16 442.89,-189.51 447.63,-184.35"/>
</g>
<!-- cf073b09&#45;ba36&#45;4492&#45;9a7c&#45;50c641e54d87 -->
<g id="node11" class="node">
<title>cf073b09&#45;ba36&#45;4492&#45;9a7c&#45;50c641e54d87</title>
<polygon fill="lightgreen" stroke="black" points="705.27,-181.63 456.77,-181.63 456.77,-145.63 705.27,-145.63 705.27,-181.63"/>
<text text-anchor="middle" x="581.02" y="-155.88" font-family="Times New Roman,serif" font-size="20.00">Turn(ACTemperature,Down)</text>
</g>
<!-- e3427bab&#45;f98b&#45;44f3&#45;87f6&#45;b53034e41529&#45;&gt;cf073b09&#45;ba36&#45;4492&#45;9a7c&#45;50c641e54d87 -->
<g id="edge10" class="edge">
<title>e3427bab&#45;f98b&#45;44f3&#45;87f6&#45;b53034e41529&#45;&gt;cf073b09&#45;ba36&#45;4492&#45;9a7c&#45;50c641e54d87</title>
<path fill="none" stroke="black" d="M516.82,-223.67C527.4,-213.94 541.6,-200.88 553.96,-189.52"/>
<polygon fill="black" stroke="black" points="556.04,-192.35 561.03,-183.01 551.3,-187.2 556.04,-192.35"/>
</g>
<!-- 3fef1c01&#45;2485&#45;422a&#45;9bca&#45;5c3f634cc174 -->
<g id="node5" class="node">
<title>3fef1c01&#45;2485&#45;422a&#45;9bca&#45;5c3f634cc174</title>
<polygon fill="#ff8080" stroke="black" points="336.14,-109.63 299.89,-109.63 299.89,-79.13 336.14,-79.13 336.14,-109.63"/>
<text text-anchor="middle" x="318.02" y="-86.63" font-family="Times New Roman,serif" font-size="20.00">→</text>
</g>
<!-- 04d8ae05&#45;9949&#45;4928&#45;86a8&#45;d2d1fb1d54ea&#45;&gt;3fef1c01&#45;2485&#45;422a&#45;9bca&#45;5c3f634cc174 -->
<g id="edge4" class="edge">
<title>04d8ae05&#45;9949&#45;4928&#45;86a8&#45;d2d1fb1d54ea&#45;&gt;3fef1c01&#45;2485&#45;422a&#45;9bca&#45;5c3f634cc174</title>
<path fill="none" stroke="black" d="M403.07,-150.92C387.32,-140.63 364.14,-125.5 345.95,-113.62"/>
<polygon fill="black" stroke="black" points="348,-110.78 337.71,-108.24 344.17,-116.64 348,-110.78"/>
</g>
<!-- 6e62e4c2&#45;067a&#45;4440&#45;9272&#45;b8af3a513f1e -->
<g id="node8" class="node">
<title>6e62e4c2&#45;067a&#45;4440&#45;9272&#45;b8af3a513f1e</title>
<polygon fill="#ff8080" stroke="black" points="543.14,-109.63 506.89,-109.63 506.89,-79.13 543.14,-79.13 543.14,-109.63"/>
<text text-anchor="middle" x="525.02" y="-86.63" font-family="Times New Roman,serif" font-size="20.00">→</text>
</g>
<!-- 04d8ae05&#45;9949&#45;4928&#45;86a8&#45;d2d1fb1d54ea&#45;&gt;6e62e4c2&#45;067a&#45;4440&#45;9272&#45;b8af3a513f1e -->
<g id="edge7" class="edge">
<title>04d8ae05&#45;9949&#45;4928&#45;86a8&#45;d2d1fb1d54ea&#45;&gt;6e62e4c2&#45;067a&#45;4440&#45;9272&#45;b8af3a513f1e</title>
<path fill="none" stroke="black" d="M439.13,-150.92C455.04,-140.63 478.45,-125.5 496.81,-113.62"/>
<polygon fill="black" stroke="black" points="498.64,-116.61 505.14,-108.24 494.84,-110.73 498.64,-116.61"/>
</g>
<!-- 4ae1bc3c&#45;f2d2&#45;4dc4&#45;87fa&#45;3d84482fb297 -->
<g id="node6" class="node">
<title>4ae1bc3c&#45;f2d2&#45;4dc4&#45;87fa&#45;3d84482fb297</title>
<ellipse fill="#ffff80" stroke="black" cx="111.02" cy="-21.57" rx="111.02" ry="21.57"/>
<text text-anchor="middle" x="111.02" y="-13.82" font-family="Times New Roman,serif" font-size="20.00">Holding(Nothing)</text>
</g>
<!-- 3fef1c01&#45;2485&#45;422a&#45;9bca&#45;5c3f634cc174&#45;&gt;4ae1bc3c&#45;f2d2&#45;4dc4&#45;87fa&#45;3d84482fb297 -->
<g id="edge5" class="edge">
<title>3fef1c01&#45;2485&#45;422a&#45;9bca&#45;5c3f634cc174&#45;&gt;4ae1bc3c&#45;f2d2&#45;4dc4&#45;87fa&#45;3d84482fb297</title>
<path fill="none" stroke="black" d="M299.65,-87.1C271.92,-77.61 218.03,-59.18 174.93,-44.43"/>
<polygon fill="black" stroke="black" points="176.25,-41.18 165.65,-41.26 173.98,-47.81 176.25,-41.18"/>
</g>
<!-- 3c5730d1&#45;6fc5&#45;4dbe&#45;b5a1&#45;1a2661a7cd57 -->
<g id="node7" class="node">
<title>3c5730d1&#45;6fc5&#45;4dbe&#45;b5a1&#45;1a2661a7cd57</title>
<ellipse fill="#ffff80" stroke="black" cx="318.02" cy="-21.57" rx="77.6" ry="21.57"/>
<text text-anchor="middle" x="318.02" y="-13.82" font-family="Times New Roman,serif" font-size="20.00">Active(AC)</text>
</g>
<!-- 3fef1c01&#45;2485&#45;422a&#45;9bca&#45;5c3f634cc174&#45;&gt;3c5730d1&#45;6fc5&#45;4dbe&#45;b5a1&#45;1a2661a7cd57 -->
<g id="edge6" class="edge">
<title>3fef1c01&#45;2485&#45;422a&#45;9bca&#45;5c3f634cc174&#45;&gt;3c5730d1&#45;6fc5&#45;4dbe&#45;b5a1&#45;1a2661a7cd57</title>
<path fill="none" stroke="black" d="M318.02,-78.71C318.02,-71.77 318.02,-63.19 318.02,-54.85"/>
<polygon fill="black" stroke="black" points="321.52,-54.91 318.02,-44.91 314.52,-54.91 321.52,-54.91"/>
</g>
<!-- 9a7cf296&#45;aee4&#45;4820&#45;a40a&#45;031bdcc0a80c -->
<g id="node9" class="node">
<title>9a7cf296&#45;aee4&#45;4820&#45;a40a&#45;031bdcc0a80c</title>
<ellipse fill="#ffff80" stroke="black" cx="525.02" cy="-21.57" rx="111.02" ry="21.57"/>
<text text-anchor="middle" x="525.02" y="-13.82" font-family="Times New Roman,serif" font-size="20.00">Holding(Nothing)</text>
</g>
<!-- 6e62e4c2&#45;067a&#45;4440&#45;9272&#45;b8af3a513f1e&#45;&gt;9a7cf296&#45;aee4&#45;4820&#45;a40a&#45;031bdcc0a80c -->
<g id="edge8" class="edge">
<title>6e62e4c2&#45;067a&#45;4440&#45;9272&#45;b8af3a513f1e&#45;&gt;9a7cf296&#45;aee4&#45;4820&#45;a40a&#45;031bdcc0a80c</title>
<path fill="none" stroke="black" d="M525.02,-78.71C525.02,-71.77 525.02,-63.19 525.02,-54.85"/>
<polygon fill="black" stroke="black" points="528.52,-54.91 525.02,-44.91 521.52,-54.91 528.52,-54.91"/>
</g>
<!-- 651886c4&#45;3ba8&#45;40df&#45;a4f3&#45;f3ab24ad5ea9 -->
<g id="node10" class="node">
<title>651886c4&#45;3ba8&#45;40df&#45;a4f3&#45;f3ab24ad5ea9</title>
<polygon fill="lightgreen" stroke="black" points="778.02,-39.57 654.02,-39.57 654.02,-3.57 778.02,-3.57 778.02,-39.57"/>
<text text-anchor="middle" x="716.02" y="-13.82" font-family="Times New Roman,serif" font-size="20.00">Turn(AC,On)</text>
</g>
<!-- 6e62e4c2&#45;067a&#45;4440&#45;9272&#45;b8af3a513f1e&#45;&gt;651886c4&#45;3ba8&#45;40df&#45;a4f3&#45;f3ab24ad5ea9 -->
<g id="edge9" class="edge">
<title>6e62e4c2&#45;067a&#45;4440&#45;9272&#45;b8af3a513f1e&#45;&gt;651886c4&#45;3ba8&#45;40df&#45;a4f3&#45;f3ab24ad5ea9</title>
<path fill="none" stroke="black" d="M543.33,-86.59C569.53,-76.88 618.89,-58.58 658.14,-44.02"/>
<polygon fill="black" stroke="black" points="659.34,-47.31 667.5,-40.55 656.91,-40.75 659.34,-47.31"/>
</g>
</g>
</svg>
